<?xml version="1.0" encoding="UTF-8"?>
<svg xmlns="http://www.w3.org/2000/svg" width="960" height="540" viewBox="0 0 960 540">
  <defs>
    <linearGradient id="bg" x1="0" y1="0" x2="1" y2="1">
      <stop offset="0" stop-color="#f1f6ff"/>
      <stop offset="1" stop-color="#fff8ec"/>
    </linearGradient>
  </defs>
  <rect width="960" height="540" rx="30" fill="url(#bg)"/>
  <rect x="6" y="6" width="948" height="528" rx="26" fill="#ffffff" opacity="0.82" stroke="#c8d9ef" stroke-width="3"/>
  <g transform="matrix(1.16 0 0 1.16 -70 -78)">
    <rect x="135" y="142" width="190" height="52" rx="26" fill="#edf6ff" stroke="#bed2eb" stroke-width="3"/>
  <text x="230" y="177" text-anchor="middle" font-family="Arial, sans-serif" font-size="27" font-weight="900" fill="#1f4778">Legutóbbi</text>
  <rect x="340" y="142" width="190" height="52" rx="26" fill="#edf6ff" stroke="#bed2eb" stroke-width="3"/>
  <text x="435" y="177" text-anchor="middle" font-family="Arial, sans-serif" font-size="27" font-weight="900" fill="#1f4778">Távolság</text>
  <rect x="150" y="226" width="280" height="56" rx="13" fill="#fff" stroke="#c7d9ef" stroke-width="3"/><text x="174" y="263" font-family="Arial" font-size="29" font-weight="900" fill="#1f4778">Legutóbbi</text><rect x="150" y="290" width="280" height="56" rx="13" fill="#fff" stroke="#c7d9ef" stroke-width="3"/><text x="174" y="327" font-family="Arial" font-size="29" font-weight="900" fill="#1f4778">Releváns</text><rect x="150" y="354" width="280" height="56" rx="13" fill="#fff" stroke="#c7d9ef" stroke-width="3"/><text x="174" y="391" font-family="Arial" font-size="29" font-weight="900" fill="#1f4778">Korábbi</text>
  <rect x="482" y="226" width="280" height="56" rx="13" fill="#edf6ff" stroke="#c7d9ef" stroke-width="3"/><text x="506" y="263" font-family="Arial" font-size="29" font-weight="900" fill="#1f4778">Hónap</text><rect x="482" y="290" width="280" height="56" rx="13" fill="#edf6ff" stroke="#c7d9ef" stroke-width="3"/><text x="506" y="327" font-family="Arial" font-size="29" font-weight="900" fill="#1f4778">Hét</text><rect x="482" y="354" width="280" height="56" rx="13" fill="#edf6ff" stroke="#c7d9ef" stroke-width="3"/><text x="506" y="391" font-family="Arial" font-size="29" font-weight="900" fill="#1f4778">Nap</text>
  <rect x="150" y="430" width="660" height="42" rx="13" fill="#f5f9ff" stroke="#c6d8ee" stroke-width="3"/><text x="175" y="458" font-family="Arial" font-size="22" font-weight="900" fill="#1d3354">10 km</text>
  </g>
</svg>
