<?xml version="1.0" encoding="UTF-8"?>
<svg xmlns="http://www.w3.org/2000/svg" width="960" height="540" viewBox="0 0 960 540">
  <defs>
    <linearGradient id="bg" x1="0" y1="0" x2="1" y2="1">
      <stop offset="0" stop-color="#fff3eb"/>
      <stop offset="1" stop-color="#f8fbff"/>
    </linearGradient>
  </defs>
  <rect width="960" height="540" rx="30" fill="url(#bg)"/>
  <rect x="6" y="6" width="948" height="528" rx="26" fill="#ffffff" opacity="0.82" stroke="#f0c5ab" stroke-width="3"/>
  <g transform="matrix(1.16 0 0 1.16 -70 -78)">
    <rect x="126" y="142" width="708" height="120" rx="22" fill="#edf6ff" stroke="#c7dbed" stroke-width="3"/><text x="160" y="190" font-family="Arial" font-size="28" font-weight="900" fill="#245c9c">Date</text><rect x="652" y="170" width="130" height="44" rx="22" fill="#fff4e8" stroke="#e5bf89" stroke-width="3"/>
  <text x="717" y="201" text-anchor="middle" font-family="Arial, sans-serif" font-size="27" font-weight="900" fill="#a56017">one-time</text>
  <rect x="160" y="292" width="150" height="74" rx="12" fill="#fff" stroke="#c7d9ef" stroke-width="3"/><text x="176" y="318" font-family="Arial" font-size="17" font-weight="800" fill="#61728f">Start</text><text x="176" y="347" font-family="Arial" font-size="19" font-weight="900" fill="#1d3354">2026/05/23</text><rect x="390" y="292" width="150" height="74" rx="12" fill="#fff" stroke="#c7d9ef" stroke-width="3"/><text x="406" y="318" font-family="Arial" font-size="17" font-weight="800" fill="#61728f">End</text><text x="406" y="347" font-family="Arial" font-size="19" font-weight="900" fill="#1d3354">2026/05/23</text><rect x="620" y="292" width="190" height="56" rx="13" fill="#edf6ff" stroke="#c7d9ef" stroke-width="3"/><text x="644" y="329" font-family="Arial" font-size="29" font-weight="900" fill="#1f4778">Pricing OFF</text><rect x="620" y="356" width="190" height="56" rx="13" fill="#f0eafa" stroke="#c7d9ef" stroke-width="3"/><text x="644" y="393" font-family="Arial" font-size="29" font-weight="900" fill="#1f4778">Policies</text>
  </g>
</svg>