<?xml version="1.0" encoding="UTF-8"?>
<svg xmlns="http://www.w3.org/2000/svg" width="960" height="540" viewBox="0 0 960 540">
  <defs>
    <linearGradient id="bg" x1="0" y1="0" x2="1" y2="1">
      <stop offset="0" stop-color="#fff5e8"/>
      <stop offset="1" stop-color="#f7fbff"/>
    </linearGradient>
  </defs>
  <rect width="960" height="540" rx="30" fill="url(#bg)"/>
  <rect x="6" y="6" width="948" height="528" rx="26" fill="#ffffff" opacity="0.82" stroke="#ecd0a5" stroke-width="3"/>
  <g transform="matrix(1.16 0 0 1.16 -70 -78)">
    <rect x="116" y="132" width="728" height="314" rx="22" fill="#f8fcff" stroke="#c7dbed" stroke-width="3"/>
  <rect x="144" y="172" width="150" height="190" rx="16" fill="#eaf4ff" stroke="#b9d1ee" stroke-dasharray="10 9" stroke-width="3"/><text x="219" y="280" text-anchor="middle" font-family="Arial" font-size="44" font-weight="900" fill="#245c9c">+</text>
  <rect x="318" y="172" width="150" height="74" rx="12" fill="#fff" stroke="#c7d9ef" stroke-width="3"/><text x="334" y="198" font-family="Arial" font-size="17" font-weight="800" fill="#61728f">Source</text><text x="334" y="227" font-family="Arial" font-size="19" font-weight="900" fill="#1d3354">https://...</text><rect x="480" y="172" width="150" height="74" rx="12" fill="#fff" stroke="#c7d9ef" stroke-width="3"/><text x="496" y="198" font-family="Arial" font-size="17" font-weight="800" fill="#61728f">Type</text><text x="496" y="227" font-family="Arial" font-size="19" font-weight="900" fill="#1d3354">Supplies</text><rect x="642" y="172" width="150" height="74" rx="12" fill="#fff" stroke="#c7d9ef" stroke-width="3"/><text x="658" y="198" font-family="Arial" font-size="17" font-weight="800" fill="#61728f">Title *</text><text x="658" y="227" font-family="Arial" font-size="19" font-weight="900" fill="#1d3354">City-to-Lake SUV</text>
  <rect x="318" y="270" width="150" height="74" rx="12" fill="#fff" stroke="#c7d9ef" stroke-width="3"/><text x="334" y="296" font-family="Arial" font-size="17" font-weight="800" fill="#61728f">Category</text><text x="334" y="325" font-family="Arial" font-size="19" font-weight="900" fill="#1d3354">Ride</text><rect x="480" y="270" width="150" height="74" rx="12" fill="#fff" stroke="#c7d9ef" stroke-width="3"/><text x="496" y="296" font-family="Arial" font-size="17" font-weight="800" fill="#61728f">Capacity *</text><text x="496" y="325" font-family="Arial" font-size="19" font-weight="900" fill="#1d3354">4</text><rect x="642" y="270" width="150" height="74" rx="12" fill="#fff" stroke="#c7d9ef" stroke-width="3"/><text x="658" y="296" font-family="Arial" font-size="17" font-weight="800" fill="#61728f">Quantity *</text><text x="658" y="325" font-family="Arial" font-size="19" font-weight="900" fill="#1d3354">1</text>
  <rect x="318" y="370" width="486" height="46" rx="12" fill="#e8f8ef" stroke="#9ad5b0" stroke-width="3"/><text x="561" y="400" text-anchor="middle" font-family="Arial" font-size="20" font-weight="900" fill="#17633b">Nyilvános · Mentés</text>
  </g>
</svg>