<?xml version="1.0" encoding="UTF-8"?>
<svg xmlns="http://www.w3.org/2000/svg" width="960" height="540" viewBox="0 0 960 540">
  <defs>
    <linearGradient id="bg" x1="0" y1="0" x2="1" y2="1">
      <stop offset="0" stop-color="#fff3eb"/>
      <stop offset="1" stop-color="#f8fbff"/>
    </linearGradient>
  </defs>
  <rect width="960" height="540" rx="30" fill="url(#bg)"/>
  <rect x="6" y="6" width="948" height="528" rx="26" fill="#ffffff" opacity="0.82" stroke="#f0c5ab" stroke-width="3"/>
  <g transform="matrix(1.16 0 0 1.16 -70 -78)">
    <rect x="172" y="144" width="250" height="50" rx="25" fill="#fff4e8" stroke="#e5bf89" stroke-width="3"/>
  <text x="297" y="178" text-anchor="middle" font-family="Arial, sans-serif" font-size="27" font-weight="900" fill="#a56017">+ Új esemény</text>
  <rect x="170" y="226" width="620" height="52" rx="13" fill="#fff" stroke="#c7d9ef" stroke-width="3"/><text x="194" y="261" font-family="Arial" font-size="28" font-weight="900" fill="#1f4778">Normál esemény</text><rect x="170" y="286" width="620" height="52" rx="13" fill="#fff" stroke="#c7d9ef" stroke-width="3"/><text x="194" y="321" font-family="Arial" font-size="28" font-weight="900" fill="#1f4778">Bajnokság</text><rect x="170" y="346" width="620" height="52" rx="13" fill="#fff" stroke="#c7d9ef" stroke-width="3"/><text x="194" y="381" font-family="Arial" font-size="28" font-weight="900" fill="#1f4778">Erőforrások</text><rect x="170" y="406" width="620" height="52" rx="13" fill="#fff" stroke="#c7d9ef" stroke-width="3"/><text x="194" y="441" font-family="Arial" font-size="28" font-weight="900" fill="#1f4778">Ticketing / QR</text>
  <rect x="278" y="464" width="520" height="44" rx="22" fill="#e8f8ef" stroke="#9ad5b0" stroke-width="3"/>
  <text x="538" y="495" text-anchor="middle" font-family="Arial, sans-serif" font-size="27" font-weight="900" fill="#17633b">Auto meghívó · prioritási lista</text>
  </g>
</svg>