<?xml version="1.0" encoding="UTF-8"?>
<svg xmlns="http://www.w3.org/2000/svg" width="960" height="540" viewBox="0 0 960 540">
  <defs>
    <linearGradient id="bg" x1="0" y1="0" x2="1" y2="1">
      <stop offset="0" stop-color="#eefbf3"/>
      <stop offset="1" stop-color="#f8fbff"/>
    </linearGradient>
  </defs>
  <rect width="960" height="540" rx="30" fill="url(#bg)"/>
  <rect x="6" y="6" width="948" height="528" rx="26" fill="#ffffff" opacity="0.82" stroke="#b9dcc7" stroke-width="3"/>
  <g transform="matrix(1.16 0 0 1.16 -70 -78)">
    <rect x="116" y="126" width="728" height="340" rx="22" fill="#f5fbfb" stroke="#c7dbed" stroke-width="3"/>
  <text x="150" y="174" font-family="Arial" font-size="25" font-weight="900" fill="#1d3354">Main event</text><rect x="628" y="142" width="120" height="38" rx="19" fill="#eaf4ff" stroke="#bed2eb" stroke-width="3"/>
  <text x="688" y="170" text-anchor="middle" font-family="Arial, sans-serif" font-size="27" font-weight="900" fill="#1f4778">4 members</text>
  <rect x="150" y="205" width="278" height="54" rx="16" fill="#fff" stroke="#d6e2f0" stroke-width="2"/><text x="174" y="239" font-family="Arial" font-size="20" font-weight="850" fill="#1d3354">Meeting spot?</text>
  <rect x="150" y="278" width="330" height="82" rx="16" fill="#fff" stroke="#d6e2f0" stroke-width="2"/><rect x="174" y="296" width="96" height="48" rx="10" fill="#cddcec"/><text x="288" y="326" font-family="Arial" font-size="20" font-weight="900" fill="#1d3354">Shared event</text>
  <rect x="536" y="292" width="270" height="58" rx="18" fill="#2460a5"/><text x="671" y="328" text-anchor="middle" font-family="Arial" font-size="20" font-weight="900" fill="#fff">Yes, see you there.</text>
  <rect x="536" y="258" width="176" height="32" rx="16" fill="#fff" stroke="#d6e2f0"/><text x="576" y="280" text-anchor="middle" font-family="Arial" font-size="20" font-weight="900" fill="#245c9c">Reply</text><circle cx="636" cy="274" r="8" fill="none" stroke="#245c9c" stroke-width="2"/><circle cx="633" cy="272" r="1.5" fill="#245c9c"/><circle cx="639" cy="272" r="1.5" fill="#245c9c"/><path d="M 631 278 Q 636 282 641 278" fill="none" stroke="#245c9c" stroke-width="2" stroke-linecap="round"/><circle cx="678" cy="262" r="4.6" fill="#245c9c"/><circle cx="678" cy="274" r="4.6" fill="#245c9c"/><circle cx="678" cy="286" r="4.6" fill="#245c9c"/>
  <rect x="150" y="394" width="656" height="44" rx="13" fill="#fff" stroke="#c7dbed" stroke-width="3"/><text x="478" y="423" text-anchor="middle" font-family="Arial" font-size="20" font-weight="850" fill="#245c9c">Write message</text>
  </g>
</svg>