<?xml version="1.0" encoding="UTF-8"?>
<svg xmlns="http://www.w3.org/2000/svg" width="960" height="540" viewBox="0 0 960 540">
  <defs>
    <linearGradient id="bg" x1="0" y1="0" x2="1" y2="1">
      <stop offset="0" stop-color="#fff5e8"/>
      <stop offset="1" stop-color="#f7fbff"/>
    </linearGradient>
  </defs>
  <rect width="960" height="540" rx="30" fill="url(#bg)"/>
  <rect x="6" y="6" width="948" height="528" rx="26" fill="#ffffff" opacity="0.82" stroke="#ecd0a5" stroke-width="3"/>
  <g transform="matrix(1.16 0 0 1.16 -70 -78)">
    <rect x="78" y="112" width="520" height="350" rx="24" fill="#fff" stroke="#c7d9ef" stroke-width="3"/>
  <rect x="104" y="138" width="468" height="170" rx="16" fill="url(#assetPhoto)"/><defs><linearGradient id="assetPhoto" x1="0" y1="0" x2="1" y2="1"><stop offset="0" stop-color="#d9bb79"/><stop offset="1" stop-color="#8db8c0"/></linearGradient></defs>
  <text x="132" y="360" font-family="Arial" font-size="28" font-weight="900" fill="#1d3354">City-to-Lake SUV</text>
  <text x="132" y="394" font-family="Arial" font-size="22" font-weight="850" fill="#52677f">Supplies · Austin</text>
  <circle cx="540" cy="360" r="31" fill="#fff" stroke="#c7d9ef" stroke-width="3"/><circle cx="540" cy="348" r="4.6" fill="#245c9c"/><circle cx="540" cy="360" r="4.6" fill="#245c9c"/><circle cx="540" cy="372" r="4.6" fill="#245c9c"/>
  <rect x="636" y="172" width="236" height="52" rx="13" fill="#edf6ff" stroke="#c7d9ef" stroke-width="3"/><text x="660" y="207" font-family="Arial" font-size="28" font-weight="900" fill="#1f4778">Share</text><rect x="636" y="232" width="236" height="52" rx="13" fill="#f0eafa" stroke="#c7d9ef" stroke-width="3"/><text x="660" y="267" font-family="Arial" font-size="28" font-weight="900" fill="#1f4778">Edit</text><rect x="636" y="292" width="236" height="52" rx="13" fill="#fdecef" stroke="#c7d9ef" stroke-width="3"/><text x="660" y="327" font-family="Arial" font-size="28" font-weight="900" fill="#1f4778">Delete</text>
  </g>
</svg>