<?xml version="1.0" encoding="UTF-8"?>
<svg xmlns="http://www.w3.org/2000/svg" width="960" height="540" viewBox="0 0 960 540">
  <defs>
    <linearGradient id="bg" x1="0" y1="0" x2="1" y2="1">
      <stop offset="0" stop-color="#f2fbf8"/>
      <stop offset="1" stop-color="#fff8ed"/>
    </linearGradient>
  </defs>
  <rect width="960" height="540" rx="30" fill="url(#bg)"/>
  <rect x="6" y="6" width="948" height="528" rx="26" fill="#ffffff" opacity="0.82" stroke="#cfe2d9" stroke-width="3"/>
  <g transform="matrix(1.16 0 0 1.16 -70 -78)">
    <rect x="140" y="150" width="440" height="58" rx="29" fill="#eaf4ff" stroke="#a8c8ef" stroke-width="3"/>
  <text x="360" y="188" text-anchor="middle" font-family="Arial, sans-serif" font-size="27" font-weight="900" fill="#1f4778">Preferenciák v</text><circle cx="176" cy="172.24" r="6.4799999999999995" fill="#245c9c"/>
  <path d="M 163.04 190.96 C 165.92 180.88, 186.08 180.88, 188.96 190.96" fill="none" stroke="#245c9c" stroke-width="3.5999999999999996" stroke-linecap="round"/>
  <rect x="604" y="150" width="112" height="58" rx="29" fill="#e7f8ed" stroke="#9ad5b0" stroke-width="3"/>
  <text x="660" y="188" text-anchor="middle" font-family="Arial, sans-serif" font-size="27" font-weight="900" fill="#17633b">5</text>
  <rect x="140" y="230" width="680" height="56" rx="13" fill="#eaf4ff" stroke="#c7d9ef" stroke-width="3"/><text x="164" y="267" font-family="Arial" font-size="29" font-weight="900" fill="#1f4778">Preferenciák</text><rect x="140" y="294" width="680" height="56" rx="13" fill="#e8f8ef" stroke="#c7d9ef" stroke-width="3"/><text x="164" y="331" font-family="Arial" font-size="29" font-weight="900" fill="#1f4778">Közös ismerősök</text><rect x="140" y="358" width="680" height="56" rx="13" fill="#fff2df" stroke="#c7d9ef" stroke-width="3"/><text x="164" y="395" font-family="Arial" font-size="29" font-weight="900" fill="#1f4778">Hálózaton belül</text><rect x="140" y="422" width="680" height="56" rx="13" fill="#f0eafa" stroke="#c7d9ef" stroke-width="3"/><text x="164" y="459" font-family="Arial" font-size="29" font-weight="900" fill="#1f4778">Hálózaton kívül</text>
  </g>
</svg>