<?xml version="1.0" encoding="UTF-8"?>
<svg xmlns="http://www.w3.org/2000/svg" width="960" height="540" viewBox="0 0 960 540">
  <defs>
    <linearGradient id="bg" x1="0" y1="0" x2="1" y2="1">
      <stop offset="0" stop-color="#f2fbf8"/>
      <stop offset="1" stop-color="#fff8ed"/>
    </linearGradient>
  </defs>
  <rect width="960" height="540" rx="30" fill="url(#bg)"/>
  <rect x="6" y="6" width="948" height="528" rx="26" fill="#ffffff" opacity="0.82" stroke="#cfe2d9" stroke-width="3"/>
  <g transform="matrix(1.16 0 0 1.16 -70 -78)">
    <rect x="160" y="152" width="640" height="286" rx="22" fill="#fff" stroke="#c7dbed" stroke-width="3"/>
      <rect x="180" y="172" width="300" height="52" rx="26" fill="#edf6ff" stroke="#bed2eb" stroke-width="3"/>
  <text x="330" y="207" text-anchor="middle" font-family="Arial, sans-serif" font-size="27" font-weight="900" fill="#1f4778">Profil szerkesztése</text>
      <circle cx="684" cy="198" r="26" fill="#e8f8ef" stroke="#9ad5b0" stroke-width="3"/><path d="M671 198l9 9 17-19" fill="none" stroke="#17633b" stroke-width="4"/>
      <circle cx="752" cy="198" r="26" fill="#f8fbff" stroke="#c7dbed" stroke-width="3"/><path d="M742 188l20 20m0-20l-20 20" stroke="#245c9c" stroke-width="3"/>
      <rect x="200" y="280" width="540" height="13" rx="7" fill="#dbe8f5"/><rect x="200" y="314" width="378" height="13" rx="7" fill="#dbe8f5"/><rect x="200" y="348" width="486" height="13" rx="7" fill="#dbe8f5"/>
  </g>
</svg>