<?xml version="1.0" encoding="UTF-8"?>
<svg xmlns="http://www.w3.org/2000/svg" width="960" height="540" viewBox="0 0 960 540">
  <defs>
    <linearGradient id="bg" x1="0" y1="0" x2="1" y2="1">
      <stop offset="0" stop-color="#fff5e8"/>
      <stop offset="1" stop-color="#f7fbff"/>
    </linearGradient>
  </defs>
  <rect width="960" height="540" rx="30" fill="url(#bg)"/>
  <rect x="6" y="6" width="948" height="528" rx="26" fill="#ffffff" opacity="0.82" stroke="#ecd0a5" stroke-width="3"/>
  <g transform="matrix(1.16 0 0 1.16 -70 -78)">
    <circle cx="142" cy="274" r="72" fill="#e8f8ef" stroke="#9ad5b0" stroke-width="4"/><circle cx="142" cy="274" r="40" fill="none" stroke="#17633b" stroke-width="5"/>
  <ellipse cx="142" cy="274" rx="16.8" ry="40" fill="none" stroke="#17633b" stroke-width="4"/>
  <line x1="102" y1="274" x2="182" y2="274" stroke="#17633b" stroke-width="4"/>
  <path d="M 109.2 256 C 128 262.8, 156 262.8, 174.8 256" fill="none" stroke="#17633b" stroke-width="4"/>
  <path d="M 109.2 292 C 128 285.2, 156 285.2, 174.8 292" fill="none" stroke="#17633b" stroke-width="4"/>
  <line x1="222" y1="274" x2="412" y2="274" stroke="#a8bed8" stroke-width="10" stroke-linecap="round"/>
  <circle cx="492" cy="274" r="72" fill="#edf6ff" stroke="#a8c8ef" stroke-width="4"/><polygon points="492.0,238.0 501.7,260.6 526.2,262.9 507.7,279.1 513.2,303.1 492.0,290.6 470.8,303.1 476.3,279.1 457.8,262.9 482.3,260.6" fill="#245c9c"/>
  <line x1="572" y1="274" x2="696" y2="274" stroke="#a8bed8" stroke-width="10" stroke-linecap="round"/>
  <rect x="690" y="198" width="190" height="152" rx="24" fill="#fff4e8" stroke="#e5bf89" stroke-width="4"/><text x="785" y="258" text-anchor="middle" font-family="Arial" font-size="31" font-weight="900" fill="#a56017">Esemény</text><text x="785" y="298" text-anchor="middle" font-family="Arial" font-size="26" font-weight="850" fill="#a56017">Assign</text>
  </g>
</svg>