<svg width="120" height="120" viewBox="0 0 120 120" fill="none" xmlns="http://www.w3.org/2000/svg" role="img" aria-label="MyScoutee M logo">
  <defs>
    <linearGradient id="orb" x1="16" y1="14" x2="104" y2="108" gradientUnits="userSpaceOnUse">
      <stop offset="0" stop-color="#6E63F2"/>
      <stop offset="1" stop-color="#4F5DE7"/>
    </linearGradient>
  </defs>

  <circle cx="60" cy="60" r="52" fill="url(#orb)"/>

  <!-- Heart silhouette with bottom cut so shape reads as an M -->
  <path
    d="M60 88C49 79 31 65 31 49C31 39 38 32 47 32C53 32 57 35 60 40C63 35 67 32 73 32C82 32 89 39 89 49C89 65 71 79 60 88Z"
    stroke="#F04B67"
    stroke-width="6"
    stroke-linejoin="round"
  />

  <!-- Circular cut at bottom center to accent the M-like split -->
  <circle cx="60" cy="74" r="10" fill="url(#orb)"/>

  <!-- Bigger star on top valley -->
  <path
    d="M60 36L63.8 43.8L72.4 44.6L66.2 50.3L67.8 58.8L60 54.5L52.2 58.8L53.8 50.3L47.6 44.6L56.2 43.8L60 36Z"
    fill="#FFD659"
  />

  <circle cx="60" cy="60" r="52" stroke="rgba(255,255,255,0.35)" stroke-width="2"/>
</svg>
