<?xml version="1.0" encoding="UTF-8"?>
<svg xmlns="http://www.w3.org/2000/svg" width="960" height="540" viewBox="0 0 960 540">
  <defs>
    <linearGradient id="bg" x1="0" y1="0" x2="1" y2="1">
      <stop offset="0" stop-color="#fff3eb"/>
      <stop offset="1" stop-color="#f8fbff"/>
    </linearGradient>
  </defs>
  <rect width="960" height="540" rx="30" fill="url(#bg)"/>
  <rect x="6" y="6" width="948" height="528" rx="26" fill="#ffffff" opacity="0.82" stroke="#f0c5ab" stroke-width="3"/>
  <g transform="matrix(1.16 0 0 1.16 -70 -78)">
    <rect x="132" y="138" width="188" height="44" rx="22" fill="#fff4e8" stroke="#e5bf89" stroke-width="3"/>
  <text x="226" y="169" text-anchor="middle" font-family="Arial, sans-serif" font-size="27" font-weight="900" fill="#a56017">Események</text><rect x="340" y="138" width="160" height="44" rx="22" fill="#fff4e8" stroke="#e5bf89" stroke-width="3"/>
  <text x="420" y="169" text-anchor="middle" font-family="Arial, sans-serif" font-size="27" font-weight="900" fill="#a56017">Összes 1</text>
  <rect x="132" y="202" width="156" height="42" rx="21" fill="#edf6ff" stroke="#bed2eb" stroke-width="3"/>
  <text x="210" y="232" text-anchor="middle" font-family="Arial, sans-serif" font-size="27" font-weight="900" fill="#1f4778">Közelgő</text><rect x="304" y="202" width="112" height="42" rx="21" fill="#edf6ff" stroke="#bed2eb" stroke-width="3"/>
  <text x="360" y="232" text-anchor="middle" font-family="Arial, sans-serif" font-size="27" font-weight="900" fill="#1f4778">Nap</text><rect x="640" y="202" width="176" height="42" rx="21" fill="#f0eafa" stroke="#cebaf1" stroke-width="3"/>
  <text x="728" y="232" text-anchor="middle" font-family="Arial, sans-serif" font-size="27" font-weight="900" fill="#5c45a0">Felfedezés</text>
  <rect x="170" y="282" width="620" height="52" rx="13" fill="#fff" stroke="#c7d9ef" stroke-width="3"/><text x="194" y="317" font-family="Arial" font-size="28" font-weight="900" fill="#1f4778">Aktív</text><rect x="170" y="342" width="620" height="52" rx="13" fill="#fff" stroke="#c7d9ef" stroke-width="3"/><text x="194" y="377" font-family="Arial" font-size="28" font-weight="900" fill="#1f4778">Függő</text><rect x="170" y="402" width="620" height="52" rx="13" fill="#fff" stroke="#c7d9ef" stroke-width="3"/><text x="194" y="437" font-family="Arial" font-size="28" font-weight="900" fill="#1f4778">Meghívások</text><rect x="170" y="462" width="620" height="52" rx="13" fill="#fff" stroke="#c7d9ef" stroke-width="3"/><text x="194" y="497" font-family="Arial" font-size="28" font-weight="900" fill="#1f4778">Saját</text>
  </g>
</svg>