<?xml version="1.0" encoding="UTF-8"?>
<svg xmlns="http://www.w3.org/2000/svg" width="960" height="540" viewBox="0 0 960 540">
  <defs>
    <linearGradient id="bg" x1="0" y1="0" x2="1" y2="1">
      <stop offset="0" stop-color="#f2fbf8"/>
      <stop offset="1" stop-color="#fff8ed"/>
    </linearGradient>
  </defs>
  <rect width="960" height="540" rx="30" fill="url(#bg)"/>
  <rect x="6" y="6" width="948" height="528" rx="26" fill="#ffffff" opacity="0.82" stroke="#cfe2d9" stroke-width="3"/>
  <g transform="matrix(1.16 0 0 1.16 -70 -78)">
    <rect x="76" y="124" width="808" height="324" rx="24" fill="#f8fcff" stroke="#c7dbed" stroke-width="3"/>
  <text x="106" y="163" font-family="Arial" font-size="22" font-weight="900" fill="#315170">Mutual interest</text>
  <rect x="560" y="138" width="300" height="42" rx="21" fill="#e8f8ef" stroke="#88cfad" stroke-width="3"/>
  <text x="710" y="168" text-anchor="middle" font-family="Arial, sans-serif" font-size="27" font-weight="900" fill="#1f6d4d">6-12 person group chat</text>
  <g transform="translate(110 190) scale(1.18)">
    <rect x="0" y="0" width="640" height="158" rx="14" fill="#fff" opacity=".65" stroke="#c7dbed" stroke-width="2"/><line x1="64" y1="0" x2="64" y2="158" stroke="#dfeaf5" stroke-width="1"/><line x1="128" y1="0" x2="128" y2="158" stroke="#dfeaf5" stroke-width="1"/><line x1="192" y1="0" x2="192" y2="158" stroke="#dfeaf5" stroke-width="1"/><line x1="256" y1="0" x2="256" y2="158" stroke="#dfeaf5" stroke-width="1"/><line x1="320" y1="0" x2="320" y2="158" stroke="#dfeaf5" stroke-width="1"/><line x1="384" y1="0" x2="384" y2="158" stroke="#dfeaf5" stroke-width="1"/><line x1="448" y1="0" x2="448" y2="158" stroke="#dfeaf5" stroke-width="1"/><line x1="512" y1="0" x2="512" y2="158" stroke="#dfeaf5" stroke-width="1"/><line x1="576" y1="0" x2="576" y2="158" stroke="#dfeaf5" stroke-width="1"/><line x1="0" y1="31.6" x2="640" y2="31.6" stroke="#dfeaf5" stroke-width="1"/><line x1="0" y1="63.2" x2="640" y2="63.2" stroke="#dfeaf5" stroke-width="1"/><line x1="0" y1="94.8" x2="640" y2="94.8" stroke="#dfeaf5" stroke-width="1"/><line x1="0" y1="126.4" x2="640" y2="126.4" stroke="#dfeaf5" stroke-width="1"/>
    <line x1="95" y1="78" x2="200" y2="30" stroke="#f4973d" stroke-width="8" stroke-linecap="round" opacity=".86"/><line x1="95" y1="78" x2="190" y2="125" stroke="#36ad9c" stroke-width="6" stroke-linecap="round" opacity=".86"/><line x1="200" y1="30" x2="310" y2="28" stroke="#f4973d" stroke-width="8" stroke-linecap="round" opacity=".86"/><line x1="310" y1="28" x2="438" y2="75" stroke="#f4973d" stroke-width="8" stroke-linecap="round" opacity=".86"/>
    <line x1="200" y1="30" x2="286" y2="124" stroke="#36ad9c" stroke-width="6" stroke-linecap="round" opacity=".86"/><line x1="190" y1="125" x2="286" y2="124" stroke="#86a3bd" stroke-width="5" stroke-linecap="round" opacity=".86"/><line x1="286" y1="124" x2="438" y2="75" stroke="#36ad9c" stroke-width="6" stroke-linecap="round" opacity=".86"/>
    <circle cx="95" cy="78" r="22" fill="#e7f2ff" stroke="#9eb9d4" stroke-width="3"/><text x="95" y="85" text-anchor="middle" font-family="Arial" font-size="18" font-weight="900" fill="#245c9c">Te</text><circle cx="200" cy="30" r="22" fill="#fff" stroke="#9eb9d4" stroke-width="3"/><text x="200" y="37" text-anchor="middle" font-family="Arial" font-size="18" font-weight="900" fill="#245c9c">A</text><circle cx="190" cy="125" r="22" fill="#fff" stroke="#9eb9d4" stroke-width="3"/><text x="190" y="132" text-anchor="middle" font-family="Arial" font-size="18" font-weight="900" fill="#245c9c">B</text><circle cx="310" cy="28" r="22" fill="#fff" stroke="#9eb9d4" stroke-width="3"/><text x="310" y="35" text-anchor="middle" font-family="Arial" font-size="18" font-weight="900" fill="#245c9c">C</text><circle cx="286" cy="124" r="22" fill="#fff" stroke="#9eb9d4" stroke-width="3"/><text x="286" y="131" text-anchor="middle" font-family="Arial" font-size="18" font-weight="900" fill="#245c9c">D</text><circle cx="360" cy="118" r="22" fill="#fff" stroke="#9eb9d4" stroke-width="3"/><text x="360" y="125" text-anchor="middle" font-family="Arial" font-size="18" font-weight="900" fill="#245c9c">E</text><circle cx="438" cy="75" r="25" fill="#fff4df" stroke="#9eb9d4" stroke-width="3"/><text x="438" y="82" text-anchor="middle" font-family="Arial" font-size="18" font-weight="900" fill="#245c9c">Chat</text>
    <text x="145" y="38" text-anchor="middle" font-family="Arial" font-size="18" font-weight="900" fill="#263e5c" stroke="#fff" stroke-width="5" paint-order="stroke">92</text><text x="250" y="20" text-anchor="middle" font-family="Arial" font-size="18" font-weight="900" fill="#263e5c" stroke="#fff" stroke-width="5" paint-order="stroke">89</text><text x="374" y="38" text-anchor="middle" font-family="Arial" font-size="18" font-weight="900" fill="#263e5c" stroke="#fff" stroke-width="5" paint-order="stroke">94</text><text x="150" y="112" text-anchor="middle" font-family="Arial" font-size="18" font-weight="900" fill="#263e5c" stroke="#fff" stroke-width="5" paint-order="stroke">74</text><text x="240" y="82" text-anchor="middle" font-family="Arial" font-size="18" font-weight="900" fill="#263e5c" stroke="#fff" stroke-width="5" paint-order="stroke">68</text><text x="326" y="132" text-anchor="middle" font-family="Arial" font-size="18" font-weight="900" fill="#263e5c" stroke="#fff" stroke-width="5" paint-order="stroke">66</text>
  </g>
  <rect x="106" y="424" width="44" height="8" rx="4" fill="#f4973d"/><text x="159" y="433" font-family="Arial" font-size="20" font-weight="800" fill="#52677f">strong link</text>
  <rect x="306" y="424" width="44" height="6" rx="3" fill="#36ad9c"/><text x="359" y="433" font-family="Arial" font-size="20" font-weight="800" fill="#52677f">medium</text>
  <rect x="458" y="425" width="44" height="5" rx="3" fill="#86a3bd"/><text x="511" y="433" font-family="Arial" font-size="20" font-weight="800" fill="#52677f">lighter</text>
  </g>
</svg>