<?xml version="1.0" encoding="UTF-8"?>
<svg xmlns="http://www.w3.org/2000/svg" width="960" height="540" viewBox="0 0 960 540">
  <defs>
    <linearGradient id="bg" x1="0" y1="0" x2="1" y2="1">
      <stop offset="0" stop-color="#fff5e8"/>
      <stop offset="1" stop-color="#f7fbff"/>
    </linearGradient>
  </defs>
  <rect width="960" height="540" rx="30" fill="url(#bg)"/>
  <rect x="6" y="6" width="948" height="528" rx="26" fill="#ffffff" opacity="0.82" stroke="#ecd0a5" stroke-width="3"/>
  <g transform="matrix(1.16 0 0 1.16 -70 -78)">
    <rect x="110" y="118" width="740" height="342" rx="24" fill="#fff" stroke="#c7d9ef" stroke-width="3"/>
    <rect x="138" y="146" width="684" height="178" rx="18" fill="#7ca9c4"/>
    <circle cx="178" cy="184" r="30" fill="#25707c"/><text x="178" y="194" text-anchor="middle" font-family="Arial" font-size="19" font-weight="900" fill="#fff">TL</text>
    <circle cx="778" cy="188" r="38" fill="#263e5c"/><rect x="759" y="169" width="14.285714285714285" height="14.285714285714285" rx="2" fill="#fff"/><rect x="780.7142857142857" y="169" width="14.285714285714285" height="14.285714285714285" rx="2" fill="#fff"/><rect x="759" y="190.71428571428572" width="14.285714285714285" height="14.285714285714285" rx="2" fill="#fff"/><rect x="780.7142857142857" y="190.71428571428572" width="3.428571428571429" height="3.428571428571429" rx="2" fill="#fff"/><rect x="791.5714285714286" y="190.71428571428572" width="3.428571428571429" height="3.428571428571429" rx="2" fill="#fff"/><rect x="780.7142857142857" y="201.57142857142856" width="3.428571428571429" height="3.428571428571429" rx="2" fill="#fff"/><rect x="786.1428571428571" y="196.14285714285714" width="8.857142857142858" height="3.428571428571429" rx="2" fill="#fff"/><rect x="775.2857142857143" y="185.28571428571428" width="3.428571428571429" height="3.428571428571429" rx="2" fill="#fff"/>
    <text x="158" y="374" font-family="Arial" font-size="30" font-weight="900" fill="#1d3354">Creative Studio Meetup</text>
    <text x="158" y="412" font-family="Arial" font-size="23" font-weight="850" fill="#52677f">Esemény · jegykód megnyitása</text>
  </g>
</svg>