<?xml version="1.0" encoding="UTF-8"?>
<svg xmlns="http://www.w3.org/2000/svg" width="960" height="540" viewBox="0 0 960 540">
  <defs>
    <linearGradient id="bg" x1="0" y1="0" x2="1" y2="1">
      <stop offset="0" stop-color="#fff5e8"/>
      <stop offset="1" stop-color="#f7fbff"/>
    </linearGradient>
  </defs>
  <rect width="960" height="540" rx="30" fill="url(#bg)"/>
  <rect x="6" y="6" width="948" height="528" rx="26" fill="#ffffff" opacity="0.82" stroke="#ecd0a5" stroke-width="3"/>
  <g transform="matrix(1.16 0 0 1.16 -70 -78)">
    <rect x="104" y="112" width="752" height="360" rx="26" fill="#f8fcff" stroke="#c7dbed" stroke-width="3"/>
  <rect x="150" y="146" width="360" height="286" rx="26" fill="#20344f"/>
  <text x="330" y="190" text-anchor="middle" font-family="Arial" font-size="28" font-weight="900" fill="#dce8f5">Szkenner</text>
  <rect x="220" y="226" width="220" height="150" rx="20" fill="#fff" opacity=".12" stroke="#9ac0e8" stroke-width="5" stroke-dasharray="18 14"/>
  <rect x="288" y="262" width="34" height="34" rx="2" fill="#fff"/><rect x="336" y="262" width="34" height="34" rx="2" fill="#fff"/><rect x="288" y="310" width="34" height="34" rx="2" fill="#fff"/><rect x="336" y="310" width="10" height="10" rx="2" fill="#fff"/><rect x="360" y="310" width="10" height="10" rx="2" fill="#fff"/><rect x="336" y="334" width="10" height="10" rx="2" fill="#fff"/><rect x="348" y="322" width="22" height="10" rx="2" fill="#fff"/><rect x="324" y="298" width="10" height="10" rx="2" fill="#fff"/>
  <rect x="548" y="170" width="250" height="230" rx="22" fill="#fff" stroke="#d6e2f0" stroke-width="3"/>
  <text x="574" y="218" font-family="Arial" font-size="25" font-weight="900" fill="#1d3354">Találat</text>
  <text x="574" y="264" font-family="Arial" font-size="21" font-weight="850" fill="#52677f">Creative Studio Meetup</text>
  <text x="574" y="300" font-family="Arial" font-size="21" font-weight="850" fill="#52677f">TL · Elfogadva</text>
  <rect x="574" y="336" width="168" height="46" rx="23" fill="#e8f8ef" stroke="#9ad5b0" stroke-width="3"/>
  <text x="658" y="368" text-anchor="middle" font-family="Arial, sans-serif" font-size="27" font-weight="900" fill="#17633b">Beléptetés</text>
  </g>
</svg>