<?xml version="1.0" encoding="UTF-8"?>
<svg xmlns="http://www.w3.org/2000/svg" width="960" height="540" viewBox="0 0 960 540">
  <defs>
    <linearGradient id="bg" x1="0" y1="0" x2="1" y2="1">
      <stop offset="0" stop-color="#fff5e8"/>
      <stop offset="1" stop-color="#f7fbff"/>
    </linearGradient>
  </defs>
  <rect width="960" height="540" rx="30" fill="url(#bg)"/>
  <rect x="6" y="6" width="948" height="528" rx="26" fill="#ffffff" opacity="0.82" stroke="#ecd0a5" stroke-width="3"/>
  <g transform="matrix(1.16 0 0 1.16 -70 -78)">
    <rect x="92" y="118" width="160" height="46" rx="23" fill="#edf6ff" stroke="#bed2eb" stroke-width="3"/>
  <text x="172" y="150" text-anchor="middle" font-family="Arial, sans-serif" font-size="27" font-weight="900" fill="#1f4778">ticket</text>
    <rect x="680" y="118" width="200" height="46" rx="23" fill="#fdecef" stroke="#eaa7ad" stroke-width="3"/>
  <text x="780" y="150" text-anchor="middle" font-family="Arial, sans-serif" font-size="27" font-weight="900" fill="#9b2f38">Scan Ticket</text>
    <rect x="74" y="186" width="812" height="42" rx="12" fill="#f4f8fd" stroke="#c7d9ef" stroke-width="3"/><text x="100" y="214" font-family="Arial" font-size="22" font-weight="900" fill="#1d3354">Upcoming</text>
    <rect x="92" y="258" width="360" height="184" rx="22" fill="#fff" stroke="#c7d9ef" stroke-width="3"/>
    <rect x="112" y="278" width="320" height="84" rx="15" fill="#7ca9c4"/>
    <circle cx="132" cy="300" r="24" fill="#25707c"/><text x="132" y="308" text-anchor="middle" font-family="Arial" font-size="17" font-weight="900" fill="#fff">TL</text>
    <circle cx="402" cy="300" r="28" fill="#263e5c"/><rect x="388" y="286" width="10" height="10" rx="2" fill="#fff"/><rect x="404" y="286" width="10" height="10" rx="2" fill="#fff"/><rect x="388" y="302" width="10" height="10" rx="2" fill="#fff"/><rect x="404" y="302" width="2" height="2" rx="2" fill="#fff"/><rect x="412" y="302" width="2" height="2" rx="2" fill="#fff"/><rect x="404" y="310" width="2" height="2" rx="2" fill="#fff"/><rect x="408" y="306" width="6" height="2" rx="2" fill="#fff"/><rect x="400" y="298" width="2" height="2" rx="2" fill="#fff"/>
    <text x="114" y="398" font-family="Arial" font-size="24" font-weight="900" fill="#1d3354">Creative Studio Meetup</text>
    <text x="114" y="428" font-family="Arial" font-size="20" font-weight="850" fill="#52677f">Sat, May 30 · Ticket</text>
  </g>
</svg>