<?xml version="1.0" encoding="UTF-8"?>
<svg xmlns="http://www.w3.org/2000/svg" width="960" height="540" viewBox="0 0 960 540">
  <defs>
    <linearGradient id="bg" x1="0" y1="0" x2="1" y2="1">
      <stop offset="0" stop-color="#eefbf3"/>
      <stop offset="1" stop-color="#f8fbff"/>
    </linearGradient>
  </defs>
  <rect width="960" height="540" rx="30" fill="url(#bg)"/>
  <rect x="6" y="6" width="948" height="528" rx="26" fill="#ffffff" opacity="0.82" stroke="#b9dcc7" stroke-width="3"/>
  <g transform="matrix(1.16 0 0 1.16 -70 -78)">
    <rect x="140" y="144" width="270" height="54" rx="27" fill="#eaf4ff" stroke="#bed2eb" stroke-width="3"/>
  <text x="275" y="180" text-anchor="middle" font-family="Arial, sans-serif" font-size="27" font-weight="900" fill="#1f4778">Chatek 9+</text>
  <rect x="430" y="144" width="270" height="54" rx="27" fill="#e8f8ef" stroke="#9ad5b0" stroke-width="3"/>
  <text x="565" y="180" text-anchor="middle" font-family="Arial, sans-serif" font-size="27" font-weight="900" fill="#17633b">Összes 5</text>
  <rect x="150" y="230" width="660" height="56" rx="13" fill="#fff" stroke="#c7d9ef" stroke-width="3"/><text x="174" y="267" font-family="Arial" font-size="29" font-weight="900" fill="#1f4778">Esemény</text><rect x="150" y="294" width="660" height="56" rx="13" fill="#fff" stroke="#c7d9ef" stroke-width="3"/><text x="174" y="331" font-family="Arial" font-size="29" font-weight="900" fill="#1f4778">Alesemény</text><rect x="150" y="358" width="660" height="56" rx="13" fill="#fff" stroke="#c7d9ef" stroke-width="3"/><text x="174" y="395" font-family="Arial" font-size="29" font-weight="900" fill="#1f4778">Csoport</text><rect x="150" y="422" width="660" height="56" rx="13" fill="#fff" stroke="#c7d9ef" stroke-width="3"/><text x="174" y="459" font-family="Arial" font-size="29" font-weight="900" fill="#1f4778">Szerviz</text>
  <rect x="150" y="410" width="660" height="42" rx="13" fill="#f5f9ff" stroke="#c6d8ee" stroke-width="3"/><text x="175" y="438" font-family="Arial" font-size="22" font-weight="900" fill="#1d3354">2026. Jun. 2.</text>
  </g>
</svg>