<?xml version="1.0" encoding="UTF-8"?>
<svg xmlns="http://www.w3.org/2000/svg" width="960" height="540" viewBox="0 0 960 540">
  <defs>
    <linearGradient id="bg" x1="0" y1="0" x2="1" y2="1">
      <stop offset="0" stop-color="#fff3eb"/>
      <stop offset="1" stop-color="#f8fbff"/>
    </linearGradient>
  </defs>
  <rect width="960" height="540" rx="30" fill="url(#bg)"/>
  <rect x="6" y="6" width="948" height="528" rx="26" fill="#ffffff" opacity="0.82" stroke="#f0c5ab" stroke-width="3"/>
  <g transform="matrix(1.16 0 0 1.16 -70 -78)">
    <g transform="translate(101 248)"><rect x="0" y="0" width="170" height="104" rx="20" fill="#fff" stroke="#c7d9ef" stroke-width="3"/><rect x="69" y="22" width="32" height="32" rx="7" transform="rotate(45 85 38)" fill="#245c9c"/><text x="85" y="78" dominant-baseline="middle" text-anchor="middle" font-family="Arial" font-size="19" font-weight="900" fill="#1d3354">Invitation</text><path d="M 220 18 L 248 52 L 220 86" fill="none" stroke="#9eb2ca" stroke-width="12" stroke-linecap="round" stroke-linejoin="round"/><rect x="268" y="0" width="190" height="104" rx="20" fill="#fff" stroke="#c7d9ef" stroke-width="3"/><rect x="347" y="22" width="32" height="32" rx="7" transform="rotate(45 363 38)" fill="#245c9c"/><text x="363" y="78" dominant-baseline="middle" text-anchor="middle" font-family="Arial" font-size="19" font-weight="900" fill="#1d3354">Checkout / QR</text><path d="M 508 18 L 536 52 L 508 86" fill="none" stroke="#9eb2ca" stroke-width="12" stroke-linecap="round" stroke-linejoin="round"/><rect x="556" y="0" width="190" height="104" rx="20" fill="#fff" stroke="#c7d9ef" stroke-width="3"/><rect x="635" y="22" width="32" height="32" rx="7" transform="rotate(45 651 38)" fill="#245c9c"/><text x="651" y="78" dominant-baseline="middle" text-anchor="middle" font-family="Arial" font-size="19" font-weight="900" fill="#1d3354">Feedback</text></g>
  </g>
</svg>