<?xml version="1.0" encoding="UTF-8"?>
<svg xmlns="http://www.w3.org/2000/svg" width="960" height="540" viewBox="0 0 960 540">
  <defs>
    <linearGradient id="bg" x1="0" y1="0" x2="1" y2="1">
      <stop offset="0" stop-color="#fff3eb"/>
      <stop offset="1" stop-color="#f8fbff"/>
    </linearGradient>
  </defs>
  <rect width="960" height="540" rx="30" fill="url(#bg)"/>
  <rect x="6" y="6" width="948" height="528" rx="26" fill="#ffffff" opacity="0.82" stroke="#f0c5ab" stroke-width="3"/>
  <g transform="matrix(1.16 0 0 1.16 -70 -78)">
    <rect x="170" y="158" width="140" height="54" rx="27" fill="#33445c" stroke="#33445c" stroke-width="3"/>
  <text x="240" y="194" text-anchor="middle" font-family="Arial, sans-serif" font-size="27" font-weight="900" fill="#fff">1 / 5</text>
  <rect x="360" y="150" width="360" height="56" rx="13" fill="#fff" stroke="#c7d9ef" stroke-width="3"/><text x="384" y="187" font-family="Arial" font-size="29" font-weight="900" fill="#1f4778">View</text><rect x="360" y="214" width="360" height="56" rx="13" fill="#fff" stroke="#c7d9ef" stroke-width="3"/><text x="384" y="251" font-family="Arial" font-size="29" font-weight="900" fill="#1f4778">Edit</text><rect x="360" y="278" width="360" height="56" rx="13" fill="#fff" stroke="#c7d9ef" stroke-width="3"/><text x="384" y="315" font-family="Arial" font-size="29" font-weight="900" fill="#1f4778">Publish</text><rect x="360" y="342" width="360" height="56" rx="13" fill="#fff" stroke="#c7d9ef" stroke-width="3"/><text x="384" y="379" font-family="Arial" font-size="29" font-weight="900" fill="#1f4778">Organizer</text><rect x="360" y="406" width="360" height="56" rx="13" fill="#fff" stroke="#c7d9ef" stroke-width="3"/><text x="384" y="443" font-family="Arial" font-size="29" font-weight="900" fill="#1f4778">Share</text>
  </g>
</svg>