<?xml version="1.0" encoding="UTF-8"?>
<svg xmlns="http://www.w3.org/2000/svg" width="960" height="540" viewBox="0 0 960 540">
  <defs>
    <linearGradient id="bg" x1="0" y1="0" x2="1" y2="1">
      <stop offset="0" stop-color="#f1f6ff"/>
      <stop offset="1" stop-color="#fff8ec"/>
    </linearGradient>
  </defs>
  <rect width="960" height="540" rx="30" fill="url(#bg)"/>
  <rect x="6" y="6" width="948" height="528" rx="26" fill="#ffffff" opacity="0.82" stroke="#c8d9ef" stroke-width="3"/>
  <g transform="matrix(1.16 0 0 1.16 -70 -78)">
    <rect x="150" y="145" width="430" height="58" rx="29" fill="#ffeaf1" stroke="#eba9bd" stroke-width="3"/>
  <text x="365" y="183" text-anchor="middle" font-family="Arial, sans-serif" font-size="27" font-weight="900" fill="#9a3b54">↗ preferences · given</text>
  <rect x="170" y="228" width="360" height="56" rx="13" fill="#fff2f6" stroke="#c7d9ef" stroke-width="3"/><text x="194" y="265" font-family="Arial" font-size="29" font-weight="900" fill="#1f4778">given</text><rect x="170" y="292" width="360" height="56" rx="13" fill="#f1f8ff" stroke="#c7d9ef" stroke-width="3"/><text x="194" y="329" font-family="Arial" font-size="29" font-weight="900" fill="#1f4778">received</text><rect x="170" y="356" width="360" height="56" rx="13" fill="#f1f3ff" stroke="#c7d9ef" stroke-width="3"/><text x="194" y="393" font-family="Arial" font-size="29" font-weight="900" fill="#1f4778">mutual</text><rect x="170" y="420" width="360" height="56" rx="13" fill="#effaf2" stroke="#c7d9ef" stroke-width="3"/><text x="194" y="457" font-family="Arial" font-size="29" font-weight="900" fill="#1f4778">met</text>
  <circle cx="500" cy="174" r="24" fill="#d94a4a"/><text x="500" y="183" text-anchor="middle" font-family="Arial" font-size="20" font-weight="900" fill="#fff">2</text>
  <rect x="590" y="242" width="210" height="126" rx="18" fill="#fff" stroke="#c7d9ef" stroke-width="3"/>
  <text x="620" y="286" font-family="Arial" font-size="22" font-weight="900" fill="#1d3354">Social off</text>
  <text x="620" y="326" font-family="Arial" font-size="20" font-weight="850" fill="#61728f">Social on</text>
  </g>
</svg>