<?xml version="1.0" encoding="UTF-8"?>
<svg xmlns="http://www.w3.org/2000/svg" width="960" height="540" viewBox="0 0 960 540">
  <defs>
    <linearGradient id="bg" x1="0" y1="0" x2="1" y2="1">
      <stop offset="0" stop-color="#eefbf3"/>
      <stop offset="1" stop-color="#f8fbff"/>
    </linearGradient>
  </defs>
  <rect width="960" height="540" rx="30" fill="url(#bg)"/>
  <rect x="6" y="6" width="948" height="528" rx="26" fill="#ffffff" opacity="0.82" stroke="#b9dcc7" stroke-width="3"/>
  <g transform="matrix(1.16 0 0 1.16 -70 -78)">
    <circle cx="230" cy="265" r="45" fill="#edf6ff" stroke="#a8c8ef" stroke-width="3"/><text x="230" y="279" text-anchor="middle" font-family="Arial" font-size="42" font-weight="900" fill="#245c9c">+</text>
  <rect x="330" y="180" width="350" height="56" rx="13" fill="#fff" stroke="#c7d9ef" stroke-width="3"/><text x="354" y="217" font-family="Arial" font-size="29" font-weight="900" fill="#1f4778">Kép</text><rect x="330" y="244" width="350" height="56" rx="13" fill="#fff" stroke="#c7d9ef" stroke-width="3"/><text x="354" y="281" font-family="Arial" font-size="29" font-weight="900" fill="#1f4778">Hang</text><rect x="330" y="308" width="350" height="56" rx="13" fill="#fff" stroke="#c7d9ef" stroke-width="3"/><text x="354" y="345" font-family="Arial" font-size="29" font-weight="900" fill="#1f4778">Szavazás</text><rect x="330" y="372" width="350" height="56" rx="13" fill="#fff" stroke="#c7d9ef" stroke-width="3"/><text x="354" y="409" font-family="Arial" font-size="29" font-weight="900" fill="#1f4778">Esemény</text><rect x="330" y="436" width="350" height="56" rx="13" fill="#fff" stroke="#c7d9ef" stroke-width="3"/><text x="354" y="473" font-family="Arial" font-size="29" font-weight="900" fill="#1f4778">Eszköz</text>
  </g>
</svg>