<?xml version="1.0" encoding="UTF-8"?>
<svg xmlns="http://www.w3.org/2000/svg" width="960" height="540" viewBox="0 0 960 540">
  <defs>
    <linearGradient id="bg" x1="0" y1="0" x2="1" y2="1">
      <stop offset="0" stop-color="#f1f6ff"/>
      <stop offset="1" stop-color="#fff8ec"/>
    </linearGradient>
  </defs>
  <rect width="960" height="540" rx="30" fill="url(#bg)"/>
  <rect x="6" y="6" width="948" height="528" rx="26" fill="#ffffff" opacity="0.82" stroke="#c8d9ef" stroke-width="3"/>
  <g transform="matrix(1.16 0 0 1.16 -70 -78)">
    <rect x="170" y="132" width="620" height="286" rx="24" fill="#20344f"/>
  <rect x="190" y="150" width="180" height="8" rx="4" fill="#fff"/><rect x="380" y="150" width="180" height="8" rx="4" fill="#fff" opacity=".7"/><rect x="570" y="150" width="180" height="8" rx="4" fill="#fff" opacity=".55"/>
  <circle cx="740" cy="380" r="36" fill="#e9fbff"/><path d="M 719.84 380 C 729.2 368.48, 750.8 368.48, 760.16 380 C 750.8 391.52, 729.2 391.52, 719.84 380 Z" fill="none" stroke="#245c9c" stroke-width="3.5999999999999996" stroke-linecap="round" stroke-linejoin="round"/>
  <circle cx="740" cy="380" r="5.76" fill="#245c9c"/>
  <rect x="170" y="438" width="620" height="18" rx="9" fill="#dfe8f2"/><rect x="170" y="438" width="410" height="18" rx="9" fill="#f3973d"/><circle cx="580" cy="447" r="28" fill="#8eea10" stroke="#fff" stroke-width="5"/>
  </g>
</svg>